<?xml version="1.0" standalone="no"?>
<!DOCTYPE svg PUBLIC "-//W3C//DTD SVG 20010904//EN"
 "http://www.w3.org/TR/2001/REC-SVG-20010904/DTD/svg10.dtd">
<svg version="1.0" xmlns="http://www.w3.org/2000/svg"
 width="80.000000pt" height="80.000000pt" viewBox="0 0 80.000000 80.000000"
 preserveAspectRatio="xMidYMid meet">
<metadata>
Created by potrace 1.11, written by Peter Selinger 2001-2013
</metadata>
<g transform="translate(0.000000,80.000000) scale(0.100000,-0.100000)"
fill="#000000" stroke="none">
<path d="M302 764 c-7 -14 -8 -23 -3 -20 5 3 12 -1 15 -10 4 -10 2 -13 -7 -8
-8 5 -7 2 2 -9 11 -14 11 -20 0 -34 -9 -11 -10 -14 -2 -9 9 5 11 2 7 -8 -3 -9
-12 -16 -19 -16 -14 0 -50 49 -41 57 10 10 -14 43 -32 43 -9 0 -22 -11 -28
-24 -10 -21 -9 -23 4 -18 11 4 14 1 9 -11 -4 -11 -2 -14 9 -10 10 4 14 -3 14
-24 0 -16 5 -34 12 -41 9 -9 9 -12 -1 -12 -10 0 -11 -3 -2 -14 8 -10 9 -16 2
-21 -7 -4 -6 -14 4 -28 13 -20 12 -26 -9 -62 -22 -36 -23 -41 -8 -63 14 -21
14 -28 -1 -76 -10 -29 -17 -68 -17 -86 0 -28 -3 -32 -22 -27 -12 3 -34 -1 -48
-10 -24 -14 -45 -14 -87 0 -4 1 -8 -10 -8 -25 -1 -15 1 -27 4 -26 20 2 31 -3
26 -12 -3 -5 -1 -10 6 -10 8 0 8 -4 2 -12 -20 -26 -22 -46 -5 -43 9 2 18 4 20
5 3 3 19 7 33 9 5 0 7 6 3 13 -5 7 -3 8 5 4 7 -5 10 -11 7 -14 -3 -3 13 -14
36 -24 37 -17 43 -17 50 -3 6 9 18 14 34 11 13 -3 24 -1 24 4 0 5 13 1 30 -8
16 -9 30 -21 30 -25 0 -5 5 -5 11 -2 5 4 18 0 28 -9 16 -14 23 -13 84 20 88
46 102 48 127 17 11 -14 20 -21 20 -15 0 6 7 9 15 6 9 -4 15 -1 15 7 0 10 3
10 11 2 6 -6 18 -9 25 -6 8 3 14 -1 14 -8 0 -11 3 -11 10 1 9 13 10 13 10 0 1
-11 6 -8 20 9 11 13 20 20 20 15 0 -4 9 2 20 14 24 25 26 42 5 42 -13 0 -15 7
-9 35 6 34 -6 49 -21 25 -4 -6 -24 -9 -45 -8 -21 2 -36 6 -34 10 2 3 -9 9 -24
13 -24 5 -30 13 -41 58 -23 97 -24 109 -11 132 11 20 10 29 -9 60 -12 20 -19
40 -17 43 2 4 7 33 10 65 8 68 14 86 37 111 20 21 15 46 -10 46 -22 0 -37 -12
-36 -30 1 -16 -23 -61 -39 -72 -18 -13 -36 14 -36 53 0 22 5 39 10 39 6 0 10
6 10 14 0 16 -34 31 -49 22 -13 -8 -21 -46 -9 -46 7 0 7 -4 0 -12 -6 -7 -11
-16 -11 -20 -2 -13 -16 -9 -17 5 -3 35 -4 36 -26 28 -13 -5 -24 -15 -24 -22
-1 -8 -2 -18 -3 -24 0 -5 -8 1 -17 13 -9 13 -14 32 -11 44 13 49 -31 68 -51
22z m128 -144 c0 -5 -5 -10 -11 -10 -6 0 -9 -6 -6 -12 3 -9 -8 -13 -37 -12
-22 1 -45 -1 -51 -5 -16 -9 -35 -10 -35 -1 0 20 38 32 56 18 7 -5 21 0 35 12
26 21 49 26 49 10z m105 -30 c-3 -5 -12 -10 -18 -10 -7 0 -6 4 3 10 19 12 23
12 15 0z m-152 -51 c-14 -14 -79 -23 -87 -11 -3 5 8 9 25 10 17 0 34 3 37 6 3
3 12 6 21 6 11 0 12 -3 4 -11z m132 -5 c44 -8 44 -14 -1 -14 -21 1 -50 7 -64
15 l-25 15 30 -5 c17 -3 43 -8 60 -11z"/>
<path d="M570 106 c0 -2 8 -10 18 -17 15 -13 16 -12 3 4 -13 16 -21 21 -21 13z"/>
</g>
</svg>
